<svg width="152" height="41" viewBox="0 0 152 41" fill="none" xmlns="http://www.w3.org/2000/svg">
<path d="M12.6625 8.50347C12.16 7.93399 11.49 7.47339 10.6526 7.12165C9.8151 6.76992 8.86039 6.59405 7.78843 6.59405C6.21399 6.59405 5.06667 6.89554 4.34645 7.49851C3.62623 8.08474 3.26612 8.88871 3.26612 9.91041C3.26612 10.4464 3.35824 10.8902 3.54248 11.242C3.74347 11.577 4.04496 11.8701 4.44694 12.1213C4.84893 12.3726 5.35978 12.5903 5.9795 12.7745C6.61598 12.9588 7.36132 13.143 8.21554 13.3273C9.17025 13.5283 10.0245 13.7544 10.7782 14.0056C11.5487 14.2569 12.2019 14.5751 12.7379 14.9603C13.2738 15.3288 13.6842 15.781 13.9689 16.317C14.2537 16.853 14.396 17.523 14.396 18.3269C14.396 19.1477 14.2369 19.8595 13.9187 20.4625C13.6004 21.0655 13.1566 21.5679 12.5871 21.9699C12.0176 22.3719 11.3393 22.6734 10.5521 22.8744C9.76485 23.0586 8.90226 23.1507 7.9643 23.1507C5.20066 23.1507 2.81388 22.2882 0.803967 20.563L1.68331 19.1309C2.00154 19.4659 2.3784 19.7841 2.81388 20.0856C3.26612 20.3871 3.76022 20.6551 4.2962 20.8896C4.84893 21.1073 5.43515 21.2832 6.05488 21.4172C6.6746 21.5344 7.32782 21.5931 8.01455 21.5931C9.43824 21.5931 10.5437 21.3418 11.3309 20.8393C12.1349 20.3201 12.5369 19.5413 12.5369 18.5028C12.5369 17.9501 12.4196 17.4895 12.1851 17.121C11.9674 16.7358 11.6324 16.4091 11.1802 16.1412C10.7279 15.8564 10.1668 15.6136 9.49686 15.4126C8.82689 15.2116 8.04804 15.0106 7.16033 14.8096C6.22237 14.5918 5.40165 14.3657 4.69818 14.1312C3.99471 13.8967 3.40011 13.6036 2.91438 13.2519C2.42865 12.9002 2.06017 12.4814 1.80893 11.9957C1.57444 11.4932 1.45719 10.8819 1.45719 10.1617C1.45719 9.34094 1.60793 8.61234 1.90942 7.97587C2.22766 7.32264 2.67152 6.78667 3.24099 6.36793C3.81047 5.93245 4.48044 5.60584 5.25091 5.3881C6.02138 5.15361 6.87559 5.03636 7.81355 5.03636C9.00276 5.03636 10.058 5.22061 10.9792 5.58909C11.9171 5.94083 12.763 6.44331 13.5167 7.09653L12.6625 8.50347ZM36.6162 23H34.9078V15.6889C34.9078 14.1647 34.6649 13.0425 34.1792 12.3223C33.6935 11.6021 32.9732 11.242 32.0185 11.242C31.5161 11.242 31.0387 11.3341 30.5865 11.5183C30.151 11.7026 29.7406 11.9622 29.3554 12.2972C28.9869 12.6322 28.6603 13.0342 28.3756 13.5031C28.0908 13.9554 27.8731 14.4579 27.7223 15.0106V23H26.0139V15.6889C26.0139 14.1312 25.7794 13.0007 25.3104 12.2972C24.8415 11.5937 24.1212 11.242 23.1498 11.242C22.1616 11.242 21.2822 11.5853 20.5118 12.2721C19.7413 12.9588 19.1886 13.8633 18.8536 14.9855V23H17.1451V9.91041H18.7028V12.875C19.2388 11.8701 19.9423 11.0912 20.8132 10.5385C21.6842 9.96904 22.6473 9.6843 23.7025 9.6843C24.808 9.6843 25.6873 9.99416 26.3405 10.6139C27.0105 11.2336 27.4208 12.0459 27.5716 13.0509C28.7943 10.8065 30.4776 9.6843 32.6215 9.6843C33.3585 9.6843 33.9782 9.81829 34.4807 10.0863C34.9999 10.3543 35.4103 10.7395 35.7118 11.242C36.03 11.7277 36.2561 12.3223 36.3901 13.0258C36.5408 13.7125 36.6162 14.483 36.6162 15.3372V23ZM43.5239 23.2512C42.9042 23.2512 42.3264 23.1507 41.7904 22.9498C41.2712 22.732 40.8105 22.4389 40.4086 22.0704C40.0233 21.7019 39.7218 21.2748 39.5041 20.7891C39.2864 20.2866 39.1775 19.7506 39.1775 19.1812C39.1775 18.6117 39.3115 18.0841 39.5795 17.5983C39.8475 17.1126 40.2243 16.6939 40.71 16.3421C41.1958 15.9904 41.7736 15.7224 42.4436 15.5382C43.1136 15.3372 43.8505 15.2367 44.6545 15.2367C45.3245 15.2367 46.0028 15.2953 46.6896 15.4126C47.3763 15.5298 47.9876 15.6973 48.5236 15.915V14.7342C48.5236 13.5785 48.197 12.6657 47.5438 11.9957C46.8905 11.309 45.9861 10.9656 44.8304 10.9656C44.1604 10.9656 43.4737 11.0996 42.7702 11.3676C42.0667 11.6356 41.3549 12.0208 40.6347 12.5233L40.0317 11.3927C41.7234 10.2538 43.3648 9.6843 44.956 9.6843C46.5974 9.6843 47.8871 10.1449 48.8251 11.0661C49.7631 11.9873 50.232 13.2603 50.232 14.885V20.7891C50.232 21.2581 50.4414 21.4926 50.8601 21.4926V23C50.5754 23.0502 50.3577 23.0754 50.2069 23.0754C49.7714 23.0754 49.4281 22.9665 49.1768 22.7488C48.9423 22.531 48.8167 22.2295 48.8 21.8443L48.7497 20.8142C48.1467 21.6014 47.3846 22.2044 46.4634 22.6231C45.559 23.0419 44.5791 23.2512 43.5239 23.2512ZM43.9259 21.9448C44.8136 21.9448 45.626 21.7773 46.3629 21.4423C47.1167 21.1073 47.6861 20.6635 48.0714 20.1107C48.2221 19.96 48.331 19.8009 48.398 19.6334C48.4817 19.4491 48.5236 19.2817 48.5236 19.1309V16.9954C47.9541 16.7776 47.3595 16.6101 46.7398 16.4929C46.1368 16.3756 45.5171 16.317 44.8806 16.317C43.6747 16.317 42.6948 16.5683 41.9411 17.0707C41.1874 17.5732 40.8105 18.2348 40.8105 19.0555C40.8105 19.4575 40.8859 19.8344 41.0367 20.1861C41.2042 20.5379 41.4219 20.8477 41.6899 21.1157C41.9746 21.3669 42.3096 21.5679 42.6948 21.7187C43.0801 21.8694 43.4904 21.9448 43.9259 21.9448ZM60.4555 11.4179C59.2998 11.4513 58.2949 11.7696 57.4407 12.3726C56.5864 12.9755 55.9835 13.8046 55.6317 14.8598V23H53.9233V9.91041H55.5312V13.0509C56.017 12.0459 56.6702 11.2587 57.4909 10.6893C58.3116 10.1198 59.191 9.83504 60.1289 9.83504C60.2629 9.83504 60.3718 9.84342 60.4555 9.86017V11.4179ZM69.0124 22.3719C68.9119 22.4221 68.7612 22.4891 68.5602 22.5729C68.3759 22.6566 68.1582 22.7404 67.9069 22.8241C67.6557 22.9079 67.371 22.9833 67.0527 23.0502C66.7345 23.1172 66.3995 23.1507 66.0478 23.1507C65.6793 23.1507 65.3275 23.1005 64.9926 23C64.6576 22.8995 64.3645 22.7488 64.1132 22.5478C63.862 22.33 63.661 22.062 63.5102 21.7438C63.3595 21.4256 63.2841 21.0571 63.2841 20.6383V11.2671H61.4752V9.91041H63.2841V5.48859H64.9926V9.91041H68.0074V11.2671H64.9926V20.161C65.0261 20.6467 65.1936 21.0068 65.495 21.2413C65.8133 21.4591 66.1734 21.5679 66.5754 21.5679C67.0611 21.5679 67.4882 21.4926 67.8567 21.3418C68.2252 21.1743 68.4597 21.0571 68.5602 20.9901L69.0124 22.3719Z" fill="black"/>
<path d="M81.9251 8.50347C81.4226 7.93399 80.7527 7.47339 79.9152 7.12165C79.0777 6.76992 78.123 6.59405 77.0511 6.59405C75.4766 6.59405 74.3293 6.89554 73.6091 7.49851C72.8889 8.08474 72.5288 8.88871 72.5288 9.91041C72.5288 10.4464 72.6209 10.8902 72.8051 11.242C73.0061 11.577 73.3076 11.8701 73.7096 12.1213C74.1116 12.3726 74.6224 12.5903 75.2422 12.7745C75.8786 12.9588 76.624 13.143 77.4782 13.3273C78.4329 13.5283 79.2871 13.7544 80.0408 14.0056C80.8113 14.2569 81.4645 14.5751 82.0005 14.9603C82.5365 15.3288 82.9468 15.781 83.2316 16.317C83.5163 16.853 83.6587 17.523 83.6587 18.3269C83.6587 19.1477 83.4996 19.8595 83.1813 20.4625C82.8631 21.0655 82.4192 21.5679 81.8498 21.9699C81.2803 22.3719 80.6019 22.6734 79.8147 22.8744C79.0275 23.0586 78.1649 23.1507 77.2269 23.1507C74.4633 23.1507 72.0765 22.2882 70.0666 20.563L70.946 19.1309C71.2642 19.4659 71.6411 19.7841 72.0765 20.0856C72.5288 20.3871 73.0229 20.6551 73.5588 20.8896C74.1116 21.1073 74.6978 21.2832 75.3175 21.4172C75.9373 21.5344 76.5905 21.5931 77.2772 21.5931C78.7009 21.5931 79.8063 21.3418 80.5936 20.8393C81.3975 20.3201 81.7995 19.5413 81.7995 18.5028C81.7995 17.9501 81.6823 17.4895 81.4478 17.121C81.23 16.7358 80.895 16.4091 80.4428 16.1412C79.9906 15.8564 79.4295 15.6136 78.7595 15.4126C78.0895 15.2116 77.3107 15.0106 76.423 14.8096C75.485 14.5918 74.6643 14.3657 73.9608 14.1312C73.2574 13.8967 72.6628 13.6036 72.177 13.2519C71.6913 12.9002 71.3228 12.4814 71.0716 11.9957C70.8371 11.4932 70.7198 10.8819 70.7198 10.1617C70.7198 9.34094 70.8706 8.61234 71.1721 7.97587C71.4903 7.32264 71.9342 6.78667 72.5036 6.36793C73.0731 5.93245 73.7431 5.60584 74.5136 5.3881C75.284 5.15361 76.1382 5.03636 77.0762 5.03636C78.2654 5.03636 79.3206 5.22061 80.2418 5.58909C81.1798 5.94083 82.0256 6.44331 82.7793 7.09653L81.9251 8.50347ZM91.4577 23.2512C90.57 23.2512 89.7577 23.067 89.0207 22.6985C88.3005 22.3133 87.6807 21.8108 87.1615 21.1911C86.6423 20.5546 86.2403 19.8344 85.9556 19.0304C85.6708 18.2097 85.5285 17.3555 85.5285 16.4678C85.5285 15.5633 85.6876 14.7007 86.0058 13.88C86.324 13.0593 86.7595 12.3391 87.3123 11.7193C87.8817 11.0996 88.5433 10.6055 89.2971 10.237C90.0675 9.86854 90.8882 9.6843 91.7592 9.6843C92.2617 9.6843 92.7474 9.75967 93.2164 9.91041C93.7021 10.0444 94.1544 10.237 94.5731 10.4883C94.9918 10.7228 95.3687 11.0159 95.7037 11.3676C96.0554 11.7026 96.3569 12.0711 96.6081 12.4731V9.91041H98.1407V26.0651C98.1407 26.5341 98.3501 26.777 98.7688 26.7937V28.276C98.6013 28.3095 98.4338 28.3263 98.2663 28.3263C98.1156 28.3263 97.9648 28.3263 97.8141 28.3263C97.4288 28.2928 97.1022 28.1253 96.8342 27.8238C96.5663 27.5391 96.4323 27.1957 96.4323 26.7937V20.2866C95.7958 21.2581 95.0588 21.995 94.2213 22.4975C93.3839 23 92.4627 23.2512 91.4577 23.2512ZM91.9853 21.7438C92.4878 21.7438 92.9568 21.6601 93.3923 21.4926C93.8445 21.3251 94.2548 21.1073 94.6233 20.8393C95.0086 20.5546 95.3519 20.228 95.6534 19.8595C95.9549 19.4743 96.2145 19.0723 96.4323 18.6536V14.6086C96.3653 14.1564 96.1894 13.7293 95.9047 13.3273C95.6199 12.9085 95.2682 12.5401 94.8494 12.2218C94.4475 11.9036 94.0036 11.6523 93.5179 11.4681C93.0321 11.2839 92.5548 11.1917 92.0858 11.1917C91.3823 11.1917 90.7291 11.3425 90.1261 11.644C89.5399 11.9455 89.0291 12.3474 88.5936 12.8499C88.1748 13.3356 87.8482 13.8967 87.6137 14.5332C87.3793 15.1697 87.262 15.8229 87.262 16.4929C87.262 17.1964 87.3793 17.8663 87.6137 18.5028C87.8482 19.1393 88.1748 19.7004 88.5936 20.1861C89.0123 20.6551 89.5064 21.032 90.0759 21.3167C90.6621 21.6014 91.2986 21.7438 91.9853 21.7438ZM106.009 23.2512C104.586 23.2512 103.522 22.7823 102.818 21.8443C102.132 20.8896 101.788 19.4743 101.788 17.5983V9.91041H103.497V17.2969C103.497 20.2615 104.51 21.7438 106.537 21.7438C107.039 21.7438 107.533 21.6601 108.019 21.4926C108.505 21.3251 108.949 21.0822 109.351 20.764C109.769 20.4457 110.138 20.0689 110.456 19.6334C110.791 19.1979 111.059 18.7038 111.26 18.1511V9.91041H112.969V20.7891C112.969 21.2581 113.17 21.4926 113.572 21.4926V23C113.371 23.0335 113.203 23.0502 113.069 23.0502C112.952 23.0502 112.868 23.0502 112.818 23.0502C112.416 23.0335 112.089 22.8911 111.838 22.6231C111.587 22.3552 111.461 21.995 111.461 21.5428V20.0354C110.892 21.0571 110.113 21.8527 109.125 22.4221C108.153 22.9749 107.115 23.2512 106.009 23.2512ZM120.123 23.2512C119.503 23.2512 118.925 23.1507 118.389 22.9498C117.87 22.732 117.409 22.4389 117.007 22.0704C116.622 21.7019 116.32 21.2748 116.103 20.7891C115.885 20.2866 115.776 19.7506 115.776 19.1812C115.776 18.6117 115.91 18.0841 116.178 17.5983C116.446 17.1126 116.823 16.6939 117.309 16.3421C117.794 15.9904 118.372 15.7224 119.042 15.5382C119.712 15.3372 120.449 15.2367 121.253 15.2367C121.923 15.2367 122.601 15.2953 123.288 15.4126C123.975 15.5298 124.586 15.6973 125.122 15.915V14.7342C125.122 13.5785 124.796 12.6657 124.142 11.9957C123.489 11.309 122.585 10.9656 121.429 10.9656C120.759 10.9656 120.072 11.0996 119.369 11.3676C118.665 11.6356 117.954 12.0208 117.233 12.5233L116.63 11.3927C118.322 10.2538 119.963 9.6843 121.555 9.6843C123.196 9.6843 124.486 10.1449 125.424 11.0661C126.362 11.9873 126.831 13.2603 126.831 14.885V20.7891C126.831 21.2581 127.04 21.4926 127.459 21.4926V23C127.174 23.0502 126.956 23.0754 126.806 23.0754C126.37 23.0754 126.027 22.9665 125.775 22.7488C125.541 22.531 125.415 22.2295 125.399 21.8443L125.348 20.8142C124.745 21.6014 123.983 22.2044 123.062 22.6231C122.158 23.0419 121.178 23.2512 120.123 23.2512ZM120.525 21.9448C121.412 21.9448 122.225 21.7773 122.962 21.4423C123.715 21.1073 124.285 20.6635 124.67 20.1107C124.821 19.96 124.93 19.8009 124.997 19.6334C125.08 19.4491 125.122 19.2817 125.122 19.1309V16.9954C124.553 16.7776 123.958 16.6101 123.338 16.4929C122.735 16.3756 122.116 16.317 121.479 16.317C120.273 16.317 119.293 16.5683 118.54 17.0707C117.786 17.5732 117.409 18.2348 117.409 19.0555C117.409 19.4575 117.485 19.8344 117.635 20.1861C117.803 20.5379 118.021 20.8477 118.289 21.1157C118.573 21.3669 118.908 21.5679 119.293 21.7187C119.679 21.8694 120.089 21.9448 120.525 21.9448ZM137.054 11.4179C135.898 11.4513 134.894 11.7696 134.039 12.3726C133.185 12.9755 132.582 13.8046 132.23 14.8598V23H130.522V9.91041H132.13V13.0509C132.616 12.0459 133.269 11.2587 134.09 10.6893C134.91 10.1198 135.79 9.83504 136.728 9.83504C136.862 9.83504 136.97 9.84342 137.054 9.86017V11.4179ZM144.321 23.2512C143.366 23.2512 142.486 23.0754 141.682 22.7236C140.895 22.3552 140.209 21.861 139.622 21.2413C139.036 20.6048 138.575 19.8763 138.241 19.0555C137.922 18.2348 137.763 17.3555 137.763 16.4175C137.763 15.4963 137.922 14.6337 138.241 13.8298C138.575 13.009 139.028 12.2972 139.597 11.6942C140.183 11.0745 140.879 10.5888 141.682 10.237C142.486 9.86854 143.357 9.6843 144.295 9.6843C145.25 9.6843 146.121 9.86854 146.908 10.237C147.712 10.5888 148.399 11.0745 148.968 11.6942C149.538 12.3139 149.982 13.0258 150.3 13.8298C150.618 14.6337 150.777 15.4879 150.777 16.3924C150.777 16.5264 150.777 16.6604 150.777 16.7944C150.777 16.9284 150.769 17.0205 150.752 17.0707H139.547C139.597 17.7742 139.756 18.4274 140.024 19.0304C140.309 19.6166 140.669 20.1275 141.105 20.563C141.54 20.9985 142.034 21.3418 142.587 21.5931C143.156 21.8275 143.759 21.9448 144.396 21.9448C144.815 21.9448 145.233 21.8862 145.652 21.7689C146.071 21.6517 146.456 21.4926 146.808 21.2916C147.16 21.0906 147.478 20.8477 147.762 20.563C148.047 20.2615 148.265 19.9349 148.416 19.5831L149.898 19.9851C149.697 20.4709 149.412 20.9147 149.044 21.3167C148.675 21.7019 148.248 22.0453 147.762 22.3468C147.277 22.6315 146.741 22.8493 146.155 23C145.568 23.1675 144.957 23.2512 144.321 23.2512ZM149.144 15.7643C149.094 15.0608 148.927 14.4244 148.642 13.8549C148.374 13.2686 148.022 12.7662 147.587 12.3474C147.168 11.9287 146.674 11.6021 146.104 11.3676C145.552 11.1331 144.957 11.0159 144.321 11.0159C143.684 11.0159 143.081 11.1331 142.512 11.3676C141.942 11.6021 141.44 11.9287 141.004 12.3474C140.585 12.7662 140.242 13.2686 139.974 13.8549C139.723 14.4411 139.572 15.0776 139.522 15.7643H149.144Z" fill="#27BF88"/>
<path d="M96.6459 39.1084C96.3445 39.1084 96.0756 39.0406 95.8395 38.9049C95.6033 38.7692 95.4174 38.5833 95.2817 38.3472V39.0331H94.3999V33.5309H95.4098V35.777C95.5505 35.5358 95.7339 35.3499 95.9601 35.2192C96.1912 35.0836 96.46 35.0157 96.7665 35.0157C97.0228 35.0157 97.2564 35.071 97.4675 35.1815C97.6785 35.2921 97.8594 35.4403 98.0102 35.6262C98.1659 35.8122 98.284 36.0307 98.3644 36.282C98.4498 36.5332 98.4925 36.797 98.4925 37.0734C98.4925 37.3598 98.4448 37.6261 98.3493 37.8723C98.2589 38.1185 98.1308 38.3346 97.9649 38.5205C97.7991 38.7014 97.6032 38.8446 97.377 38.9501C97.1509 39.0557 96.9072 39.1084 96.6459 39.1084ZM96.3671 38.2492C96.5279 38.2492 96.6761 38.219 96.8118 38.1587C96.9474 38.0934 97.063 38.008 97.1585 37.9025C97.2539 37.797 97.3268 37.6738 97.377 37.5331C97.4323 37.3925 97.46 37.2417 97.46 37.0809C97.46 36.9201 97.4348 36.7669 97.3846 36.6211C97.3343 36.4754 97.2615 36.3473 97.166 36.2368C97.0756 36.1262 96.9675 36.0383 96.8419 35.973C96.7163 35.9076 96.5781 35.875 96.4274 35.875C96.2012 35.875 95.9977 35.9503 95.8168 36.1011C95.641 36.2468 95.5053 36.4277 95.4098 36.6438V37.5859C95.445 37.6864 95.4953 37.7769 95.5606 37.8572C95.6309 37.9376 95.7088 38.008 95.7942 38.0683C95.8797 38.1236 95.9726 38.1688 96.0731 38.204C96.1736 38.2341 96.2716 38.2492 96.3671 38.2492ZM99.1273 39.8018C99.2127 39.827 99.2956 39.8446 99.376 39.8546C99.4564 39.8697 99.5242 39.8772 99.5795 39.8772C99.6448 39.8772 99.7051 39.8647 99.7604 39.8395C99.8157 39.8144 99.8659 39.7692 99.9111 39.7039C99.9564 39.6436 100.002 39.5581 100.047 39.4476C100.092 39.3371 100.14 39.1989 100.19 39.0331L98.6298 35.0836H99.6699L100.74 38.1587L101.69 35.0836H102.64L100.981 39.8169C100.886 40.0933 100.723 40.3194 100.491 40.4953C100.26 40.6711 99.9739 40.7591 99.6323 40.7591C99.5519 40.7591 99.4689 40.7515 99.3835 40.7365C99.3031 40.7264 99.2177 40.7063 99.1273 40.6762V39.8018ZM106.178 33.6816H107.097L109.132 39.0331H108.062L107.565 37.699H105.696L105.206 39.0331H104.135L106.178 33.6816ZM107.376 36.9679L106.638 34.865L105.869 36.9679H107.376ZM111.07 39.1084C110.738 39.1084 110.414 39.0557 110.097 38.9501C109.781 38.8446 109.509 38.6939 109.283 38.4979L109.66 37.8648C109.901 38.0356 110.135 38.1663 110.361 38.2567C110.592 38.3421 110.821 38.3849 111.047 38.3849C111.248 38.3849 111.406 38.3472 111.522 38.2718C111.637 38.1964 111.695 38.0884 111.695 37.9477C111.695 37.807 111.627 37.704 111.492 37.6387C111.356 37.5733 111.135 37.498 110.828 37.4126C110.572 37.3422 110.354 37.2744 110.173 37.2091C109.992 37.1437 109.846 37.0709 109.736 36.9905C109.625 36.9051 109.545 36.8096 109.494 36.7041C109.444 36.5935 109.419 36.4629 109.419 36.3121C109.419 36.1111 109.457 35.9302 109.532 35.7694C109.612 35.6087 109.723 35.473 109.864 35.3624C110.004 35.2469 110.168 35.1589 110.354 35.0986C110.545 35.0383 110.751 35.0082 110.972 35.0082C111.268 35.0082 111.544 35.0509 111.801 35.1363C112.062 35.2217 112.301 35.3599 112.517 35.5509L112.11 36.1614C111.909 36.0106 111.713 35.9001 111.522 35.8297C111.336 35.7594 111.15 35.7242 110.964 35.7242C110.793 35.7242 110.65 35.7594 110.535 35.8297C110.419 35.9001 110.361 36.0131 110.361 36.1689C110.361 36.2393 110.374 36.2971 110.399 36.3423C110.429 36.3875 110.474 36.4277 110.535 36.4629C110.595 36.498 110.673 36.5332 110.768 36.5684C110.869 36.5985 110.992 36.6312 111.137 36.6664C111.409 36.7367 111.64 36.8071 111.831 36.8774C112.027 36.9478 112.185 37.0282 112.306 37.1186C112.431 37.2091 112.522 37.3146 112.577 37.4352C112.637 37.5507 112.668 37.6914 112.668 37.8572C112.668 38.2442 112.524 38.5507 112.238 38.7768C111.951 38.9979 111.562 39.1084 111.07 39.1084ZM113.333 39.8018C113.419 39.827 113.501 39.8446 113.582 39.8546C113.662 39.8697 113.73 39.8772 113.785 39.8772C113.851 39.8772 113.911 39.8647 113.966 39.8395C114.021 39.8144 114.072 39.7692 114.117 39.7039C114.162 39.6436 114.207 39.5581 114.253 39.4476C114.298 39.3371 114.346 39.1989 114.396 39.0331L112.836 35.0836H113.876L114.946 38.1587L115.896 35.0836H116.845L115.187 39.8169C115.092 40.0933 114.928 40.3194 114.697 40.4953C114.466 40.6711 114.18 40.7591 113.838 40.7591C113.758 40.7591 113.675 40.7515 113.589 40.7365C113.509 40.7264 113.424 40.7063 113.333 40.6762V39.8018ZM118.376 39.1084C118.185 39.1084 118.007 39.0783 117.841 39.018C117.675 38.9527 117.532 38.8647 117.412 38.7542C117.291 38.6386 117.195 38.5054 117.125 38.3547C117.06 38.204 117.027 38.0381 117.027 37.8572C117.027 37.6713 117.067 37.5005 117.148 37.3447C117.233 37.1839 117.349 37.0483 117.494 36.9377C117.645 36.8272 117.824 36.7417 118.03 36.6814C118.236 36.6161 118.462 36.5835 118.708 36.5835C118.884 36.5835 119.055 36.5985 119.22 36.6287C119.391 36.6588 119.542 36.7015 119.673 36.7568V36.5307C119.673 36.2694 119.597 36.0684 119.447 35.9277C119.301 35.787 119.082 35.7167 118.791 35.7167C118.58 35.7167 118.374 35.7544 118.173 35.8297C117.972 35.9051 117.766 36.0157 117.555 36.1614L117.246 35.5207C117.753 35.1841 118.301 35.0157 118.889 35.0157C119.457 35.0157 119.896 35.1564 120.208 35.4378C120.524 35.7142 120.683 36.1162 120.683 36.6438V37.8723C120.683 37.9778 120.7 38.0532 120.735 38.0984C120.776 38.1437 120.838 38.1688 120.924 38.1738V39.0331C120.753 39.0682 120.605 39.0858 120.479 39.0858C120.288 39.0858 120.14 39.0431 120.034 38.9577C119.934 38.8723 119.871 38.7592 119.846 38.6185L119.823 38.3999C119.648 38.6311 119.434 38.8069 119.183 38.9275C118.932 39.0481 118.663 39.1084 118.376 39.1084ZM118.663 38.3698C118.834 38.3698 118.994 38.3396 119.145 38.2793C119.301 38.219 119.421 38.1386 119.507 38.0381C119.617 37.9527 119.673 37.8572 119.673 37.7517V37.2995C119.552 37.2543 119.421 37.2191 119.281 37.194C119.14 37.1638 119.004 37.1488 118.874 37.1488C118.612 37.1488 118.399 37.2091 118.233 37.3296C118.067 37.4452 117.984 37.5934 117.984 37.7743C117.984 37.9452 118.05 38.0884 118.18 38.204C118.311 38.3145 118.472 38.3698 118.663 38.3698ZM127.846 37.6537C127.846 37.8799 127.801 38.0783 127.711 38.2492C127.62 38.42 127.495 38.5632 127.334 38.6788C127.178 38.7944 126.995 38.8823 126.784 38.9426C126.578 39.0029 126.357 39.0331 126.12 39.0331H123.535V33.6816H126.399C126.585 33.6816 126.754 33.7218 126.904 33.8022C127.055 33.8826 127.183 33.9882 127.289 34.1188C127.394 34.2444 127.475 34.3901 127.53 34.556C127.59 34.7168 127.62 34.8801 127.62 35.0459C127.62 35.3072 127.555 35.5534 127.424 35.7845C127.294 36.0106 127.103 36.179 126.852 36.2895C127.158 36.38 127.399 36.5433 127.575 36.7794C127.756 37.0106 127.846 37.302 127.846 37.6537ZM126.799 37.4578C126.799 37.3623 126.781 37.2719 126.746 37.1864C126.716 37.096 126.673 37.0181 126.618 36.9528C126.563 36.8875 126.497 36.8372 126.422 36.802C126.347 36.7618 126.264 36.7417 126.173 36.7417H124.575V38.1512H126.12C126.216 38.1512 126.304 38.1336 126.384 38.0984C126.47 38.0633 126.542 38.0155 126.603 37.9552C126.663 37.8899 126.711 37.8145 126.746 37.7291C126.781 37.6437 126.799 37.5532 126.799 37.4578ZM124.575 34.571V35.9202H125.962C126.138 35.9202 126.286 35.8599 126.407 35.7393C126.532 35.6187 126.595 35.4529 126.595 35.2418C126.595 35.0358 126.537 34.8725 126.422 34.7519C126.311 34.6313 126.173 34.571 126.007 34.571H124.575ZM130.384 39.1084C130.063 39.1084 129.774 39.0531 129.517 38.9426C129.261 38.8321 129.042 38.6838 128.862 38.4979C128.686 38.307 128.55 38.0884 128.455 37.8422C128.359 37.596 128.311 37.3372 128.311 37.0658C128.311 36.7895 128.359 36.5282 128.455 36.282C128.55 36.0358 128.686 35.8197 128.862 35.6338C129.042 35.4428 129.261 35.2921 129.517 35.1815C129.774 35.071 130.063 35.0157 130.384 35.0157C130.706 35.0157 130.992 35.071 131.243 35.1815C131.5 35.2921 131.716 35.4428 131.892 35.6338C132.072 35.8197 132.211 36.0358 132.306 36.282C132.402 36.5282 132.449 36.7895 132.449 37.0658C132.449 37.3372 132.402 37.596 132.306 37.8422C132.211 38.0884 132.075 38.307 131.899 38.4979C131.723 38.6838 131.507 38.8321 131.251 38.9426C130.995 39.0531 130.706 39.1084 130.384 39.1084ZM129.352 37.0658C129.352 37.2417 129.377 37.4025 129.427 37.5482C129.482 37.6889 129.555 37.812 129.645 37.9175C129.741 38.0231 129.851 38.106 129.977 38.1663C130.103 38.2215 130.238 38.2492 130.384 38.2492C130.53 38.2492 130.665 38.2215 130.791 38.1663C130.917 38.106 131.025 38.0231 131.115 37.9175C131.211 37.812 131.284 37.6864 131.334 37.5407C131.389 37.395 131.417 37.2342 131.417 37.0583C131.417 36.8875 131.389 36.7292 131.334 36.5835C131.284 36.4377 131.211 36.3121 131.115 36.2066C131.025 36.1011 130.917 36.0207 130.791 35.9654C130.665 35.9051 130.53 35.875 130.384 35.875C130.238 35.875 130.103 35.9051 129.977 35.9654C129.851 36.0257 129.741 36.1086 129.645 36.2141C129.555 36.3197 129.482 36.4453 129.427 36.591C129.377 36.7367 129.352 36.895 129.352 37.0658ZM135.483 35.9579C135.176 35.9629 134.902 36.0232 134.661 36.1388C134.42 36.2493 134.247 36.4176 134.141 36.6438V39.0331H133.131V35.0836H134.058V35.9277C134.128 35.7921 134.211 35.6715 134.307 35.5659C134.402 35.4554 134.505 35.3599 134.616 35.2795C134.726 35.1991 134.837 35.1388 134.947 35.0986C135.063 35.0534 135.174 35.0308 135.279 35.0308C135.334 35.0308 135.375 35.0308 135.4 35.0308C135.43 35.0308 135.457 35.0333 135.483 35.0383V35.9579ZM135.782 38.415L137.983 35.7921H135.872V35.0836H139.046V35.7016L136.86 38.3246H139.083V39.0331H135.782V38.415ZM141.484 39.1084C141.162 39.1084 140.873 39.0531 140.617 38.9426C140.361 38.8321 140.142 38.6838 139.961 38.4979C139.785 38.307 139.65 38.0884 139.554 37.8422C139.459 37.596 139.411 37.3372 139.411 37.0658C139.411 36.7895 139.459 36.5282 139.554 36.282C139.65 36.0358 139.785 35.8197 139.961 35.6338C140.142 35.4428 140.361 35.2921 140.617 35.1815C140.873 35.071 141.162 35.0157 141.484 35.0157C141.805 35.0157 142.092 35.071 142.343 35.1815C142.599 35.2921 142.815 35.4428 142.991 35.6338C143.172 35.8197 143.31 36.0358 143.406 36.282C143.501 36.5282 143.549 36.7895 143.549 37.0658C143.549 37.3372 143.501 37.596 143.406 37.8422C143.31 38.0884 143.175 38.307 142.999 38.4979C142.823 38.6838 142.607 38.8321 142.351 38.9426C142.094 39.0531 141.805 39.1084 141.484 39.1084ZM140.451 37.0658C140.451 37.2417 140.476 37.4025 140.527 37.5482C140.582 37.6889 140.655 37.812 140.745 37.9175C140.841 38.0231 140.951 38.106 141.077 38.1663C141.202 38.2215 141.338 38.2492 141.484 38.2492C141.63 38.2492 141.765 38.2215 141.891 38.1663C142.016 38.106 142.124 38.0231 142.215 37.9175C142.31 37.812 142.383 37.6864 142.433 37.5407C142.489 37.395 142.516 37.2342 142.516 37.0583C142.516 36.8875 142.489 36.7292 142.433 36.5835C142.383 36.4377 142.31 36.3121 142.215 36.2066C142.124 36.1011 142.016 36.0207 141.891 35.9654C141.765 35.9051 141.63 35.875 141.484 35.875C141.338 35.875 141.202 35.9051 141.077 35.9654C140.951 36.0257 140.841 36.1086 140.745 36.2141C140.655 36.3197 140.582 36.4453 140.527 36.591C140.476 36.7367 140.451 36.895 140.451 37.0658ZM145.154 39.0331L143.699 35.0836H144.739L145.741 38.2115L146.751 35.0836H147.701L146.246 39.0331H145.154ZM149.21 39.1084C149.019 39.1084 148.84 39.0783 148.674 39.018C148.509 38.9527 148.365 38.8647 148.245 38.7542C148.124 38.6386 148.029 38.5054 147.958 38.3547C147.893 38.204 147.86 38.0381 147.86 37.8572C147.86 37.6713 147.901 37.5005 147.981 37.3447C148.066 37.1839 148.182 37.0483 148.328 36.9377C148.478 36.8272 148.657 36.7417 148.863 36.6814C149.069 36.6161 149.295 36.5835 149.541 36.5835C149.717 36.5835 149.888 36.5985 150.054 36.6287C150.225 36.6588 150.375 36.7015 150.506 36.7568V36.5307C150.506 36.2694 150.431 36.0684 150.28 35.9277C150.134 35.787 149.916 35.7167 149.624 35.7167C149.413 35.7167 149.207 35.7544 149.006 35.8297C148.805 35.9051 148.599 36.0157 148.388 36.1614L148.079 35.5207C148.587 35.1841 149.134 35.0157 149.722 35.0157C150.29 35.0157 150.73 35.1564 151.041 35.4378C151.358 35.7142 151.516 36.1162 151.516 36.6438V37.8723C151.516 37.9778 151.534 38.0532 151.569 38.0984C151.609 38.1437 151.672 38.1688 151.757 38.1738V39.0331C151.586 39.0682 151.438 39.0858 151.312 39.0858C151.122 39.0858 150.973 39.0431 150.868 38.9577C150.767 38.8723 150.704 38.7592 150.679 38.6185L150.657 38.3999C150.481 38.6311 150.267 38.8069 150.016 38.9275C149.765 39.0481 149.496 39.1084 149.21 39.1084ZM149.496 38.3698C149.667 38.3698 149.828 38.3396 149.978 38.2793C150.134 38.219 150.255 38.1386 150.34 38.0381C150.451 37.9527 150.506 37.8572 150.506 37.7517V37.2995C150.385 37.2543 150.255 37.2191 150.114 37.194C149.973 37.1638 149.838 37.1488 149.707 37.1488C149.446 37.1488 149.232 37.2091 149.066 37.3296C148.901 37.4452 148.818 37.5934 148.818 37.7743C148.818 37.9452 148.883 38.0884 149.014 38.204C149.144 38.3145 149.305 38.3698 149.496 38.3698Z" fill="#6F6F6F"/>
</svg>
